<svg xmlns="http://www.w3.org/2000/svg" viewBox="0 0 208.89 212.3"><defs><style>.cls-1{fill:#8e02fb;}.cls-2{fill:#47017d;}.cls-3{fill:#47c9fb;}.cls-4{fill:#28708c;}.cls-5{fill:#c30ce0;}.cls-6{fill:#810894;}.cls-7{fill:#fa05a0;}.cls-8{fill:#8f035b;}.cls-9{fill:#ff7c65;}.cls-10{fill:#a14e40;}.cls-11{fill:#ffaf56;}.cls-12{fill:#b87e3e;}.cls-13,.cls-14,.cls-15{fill:none;stroke:#4d4d4d;stroke-miterlimit:10;opacity:0.32;}.cls-14{stroke-width:2px;}.cls-15{stroke-width:3px;}.cls-16{fill:#fff;}.cls-17{font-size:26px;fill:#00bc8c;font-family:JetBrainsMono-Bold, JetBrains Mono;font-weight:700;}</style></defs><g id="Слой_2" data-name="Слой 2"><g id="OBJECTS"><rect class="cls-1" y="88.46" width="25.58" height="10.23"/><rect class="cls-1" y="72.26" width="25.58" height="10.23"/><rect class="cls-2" y="64.59" width="25.58" height="3.41"/><rect class="cls-3" x="36.66" y="88.46" width="25.58" height="10.23"/><rect class="cls-3" x="36.66" y="72.26" width="25.58" height="10.23"/><rect class="cls-3" x="36.66" y="56.06" width="25.58" height="10.23"/><rect class="cls-3" x="36.66" y="39.86" width="25.58" height="10.23"/><rect class="cls-4" x="36.66" y="32.83" width="25.58" height="3.41"/><rect class="cls-5" x="73.33" y="88.46" width="25.58" height="10.23"/><rect class="cls-5" x="73.33" y="72.26" width="25.58" height="10.23"/><rect class="cls-5" x="73.33" y="56.06" width="25.58" height="10.23"/><rect class="cls-5" x="73.33" y="39.86" width="25.58" height="10.23"/><rect class="cls-5" x="73.33" y="23.66" width="25.58" height="10.23"/><rect class="cls-5" x="73.33" y="7.46" width="25.58" height="10.23"/><rect class="cls-6" x="73.33" width="25.58" height="3.41"/><rect class="cls-7" x="109.99" y="88.46" width="25.58" height="10.23"/><rect class="cls-7" x="109.99" y="72.26" width="25.58" height="10.23"/><rect class="cls-7" x="109.99" y="56.06" width="25.58" height="10.23"/><rect class="cls-8" x="109.99" y="48.39" width="25.58" height="3.41"/><rect class="cls-9" x="146.65" y="88.46" width="25.58" height="10.23"/><rect class="cls-9" x="146.65" y="72.26" width="25.58" height="10.23"/><rect class="cls-9" x="146.65" y="56.06" width="25.58" height="10.23"/><rect class="cls-9" x="146.65" y="39.86" width="25.58" height="10.23"/><rect class="cls-9" x="146.65" y="23.66" width="25.58" height="10.23"/><rect class="cls-10" x="146.65" y="15.99" width="25.58" height="3.41"/><rect class="cls-11" x="183.32" y="88.46" width="25.58" height="10.23"/><rect class="cls-11" x="183.32" y="72.26" width="25.58" height="10.23"/><rect class="cls-11" x="183.32" y="56.06" width="25.58" height="10.23"/><rect class="cls-12" x="183.32" y="48.39" width="25.58" height="3.41"/><path d="M103.67,212.3A103.66,103.66,0,0,0,207.33,108.64H0A103.66,103.66,0,0,0,103.67,212.3Z"/><path class="cls-11" d="M104.45,144.75a36.11,36.11,0,0,0,36.11-36.11H68.33A36.12,36.12,0,0,0,104.45,144.75Z"/><path class="cls-13" d="M62.24,108.64a42.21,42.21,0,0,0,84.41,0"/><path class="cls-14" d="M55,108.64a49.5,49.5,0,0,0,99,0"/><path class="cls-14" d="M46.45,108.64a58,58,0,0,0,116,0"/><path class="cls-14" d="M36.66,108.64a67.79,67.79,0,0,0,135.57,0"/><path class="cls-14" d="M27.33,108.64a76.34,76.34,0,0,0,152.67,0"/><path class="cls-15" d="M17.78,108.64a86.67,86.67,0,1,0,173.33,0"/><path class="cls-15" d="M8.45,108.64a96,96,0,0,0,192,0"/><path class="cls-16" d="M103.67,122.14a13.51,13.51,0,0,0,13.5-13.5h-27A13.5,13.5,0,0,0,103.67,122.14Z"/><text class="cls-17" transform="translate(31.99 171.04) scale(0.92 1)">SoundTrack</text></g></g></svg>